<svg id="visual" viewBox="0 0 960 540" width="960" height="540" xmlns="http://www.w3.org/2000/svg" xmlns:xlink="http://www.w3.org/1999/xlink" version="1.1"><path d="M0 66L87 66L87 66L175 66L175 60L262 60L262 60L349 60L349 93L436 93L436 55L524 55L524 93L611 93L611 98L698 98L698 82L785 82L785 71L873 71L873 77L960 77L960 77L960 0L960 0L873 0L873 0L785 0L785 0L698 0L698 0L611 0L611 0L524 0L524 0L436 0L436 0L349 0L349 0L262 0L262 0L175 0L175 0L87 0L87 0L0 0Z" fill="#666a86"></path><path d="M0 109L87 109L87 147L175 147L175 136L262 136L262 104L349 104L349 174L436 174L436 98L524 98L524 168L611 168L611 163L698 163L698 158L785 158L785 141L873 141L873 125L960 125L960 147L960 75L960 75L873 75L873 69L785 69L785 80L698 80L698 96L611 96L611 91L524 91L524 53L436 53L436 91L349 91L349 58L262 58L262 58L175 58L175 64L87 64L87 64L0 64Z" fill="#635a7c"></path><path d="M0 206L87 206L87 244L175 244L175 260L262 260L262 179L349 179L349 287L436 287L436 206L524 206L524 266L611 266L611 233L698 233L698 233L785 233L785 260L873 260L873 228L960 228L960 217L960 145L960 123L873 123L873 139L785 139L785 156L698 156L698 161L611 161L611 166L524 166L524 96L436 96L436 172L349 172L349 102L262 102L262 134L175 134L175 145L87 145L87 107L0 107Z" fill="#634a6f"></path><path d="M0 336L87 336L87 395L175 395L175 357L262 357L262 357L349 357L349 401L436 401L436 357L524 357L524 384L611 384L611 422L698 422L698 368L785 368L785 390L873 390L873 363L960 363L960 384L960 215L960 226L873 226L873 258L785 258L785 231L698 231L698 231L611 231L611 264L524 264L524 204L436 204L436 285L349 285L349 177L262 177L262 258L175 258L175 242L87 242L87 204L0 204Z" fill="#64395e"></path><path d="M0 541L87 541L87 541L175 541L175 541L262 541L262 541L349 541L349 541L436 541L436 541L524 541L524 541L611 541L611 541L698 541L698 541L785 541L785 541L873 541L873 541L960 541L960 541L960 382L960 361L873 361L873 388L785 388L785 366L698 366L698 420L611 420L611 382L524 382L524 355L436 355L436 399L349 399L349 355L262 355L262 355L175 355L175 393L87 393L87 334L0 334Z" fill="#63264a"></path></svg>